<svg width="24" height="24" viewBox="0 0 24 24" fill="none" xmlns="http://www.w3.org/2000/svg">
<g clip-path="url(#clip0)">
<path d="M9.87381 11.2799C10.3719 11.0294 10.7484 10.7504 11.0064 10.4488C11.4654 9.9058 11.692 9.18574 11.692 8.29317C11.692 7.4246 11.4654 6.68204 11.0124 6.05949C10.2563 5.0454 8.97674 4.52636 7.16759 4.49936H0V19.1301H6.68305C7.43611 19.1301 8.13367 19.0656 8.77872 18.9335C9.42377 18.8 9.98182 18.5555 10.4544 18.1985C10.8744 17.888 11.2254 17.5024 11.5044 17.0479C11.9455 16.3608 12.166 15.5823 12.166 14.7152C12.166 13.8751 11.9725 13.1596 11.5885 12.5715C11.1999 11.9835 10.6299 11.5529 9.87381 11.2799ZM2.95674 7.04057H6.18501C6.89457 7.04057 7.47961 7.11707 7.93865 7.26859C8.4697 7.4891 8.73522 7.93764 8.73522 8.6217C8.73522 9.23525 8.5327 9.66428 8.13217 9.9058C7.72863 10.1473 7.20509 10.2688 6.56304 10.2688H2.95674V7.04057ZM8.06166 16.3338C7.70463 16.5063 7.20209 16.5918 6.55854 16.5918H2.95674V12.69H6.60804C7.24409 12.6945 7.73914 12.7785 8.09316 12.936C8.72322 13.2211 9.03674 13.7431 9.03674 14.5067C9.03674 15.4068 8.71272 16.0128 8.06166 16.3338Z" fill="#191A1E"/>
<path d="M21.6933 5.18192H15.3372V7.00306H21.6933V5.18192Z" fill="#191A1E"/>
<path d="M23.9015 12.369C23.7695 11.5214 23.4784 10.7759 23.0254 10.1323C22.5289 9.40325 21.8988 8.86921 21.1322 8.53168C20.3687 8.19265 19.5091 8.02314 18.552 8.02464C16.9454 8.02464 15.6403 8.52718 14.6307 9.52476C13.6241 10.5253 13.1201 11.964 13.1201 13.8391C13.1201 15.8388 13.6766 17.2834 14.7957 18.17C15.9103 19.058 17.1974 19.5006 18.6585 19.5006C20.4272 19.5006 21.8028 18.974 22.7854 17.9239C23.4139 17.2609 23.7695 16.6083 23.8475 15.9678H20.9192C20.7497 16.2843 20.5532 16.5318 20.3282 16.7118C19.9201 17.0419 19.3891 17.2069 18.738 17.2069C18.1185 17.2069 17.5935 17.0704 17.1554 16.7989C16.4324 16.3638 16.0543 15.6018 16.0063 14.5172H23.9975C24.0095 13.5826 23.9795 12.864 23.9015 12.369ZM16.0783 12.6495C16.1833 11.946 16.4384 11.3879 16.8434 10.9754C17.2484 10.5643 17.8215 10.3573 18.555 10.3558C19.2316 10.3558 19.7971 10.5493 20.2577 10.9379C20.7122 11.3294 20.9687 11.898 21.0212 12.6495H16.0783Z" fill="#191A1E"/>
</g>
<defs>
<clipPath id="clip0">
<rect width="24" height="24" fill="white"/>
</clipPath>
</defs>
</svg>
