<svg width="24" height="24" viewBox="0 0 24 24" fill="none" xmlns="http://www.w3.org/2000/svg">
<path d="M12 24C5.3925 24 0 18.607 0 12C0 5.3925 5.39297 0 12 0C18.6075 0 24 5.39297 24 12C24 18.6075 18.607 24 12 24ZM20.1394 18.773C21.6375 16.9758 22.552 14.6766 22.5914 12.1687C20.7136 12.608 18.6281 12.6375 16.5042 12.2503C15.9516 12.1495 15.3989 12.0216 14.8495 11.8678C14.6667 12.3652 14.4727 12.8583 14.2664 13.3467C14.0559 13.845 13.8337 14.3348 13.6012 14.8177C16.132 15.7842 18.8742 17.2233 20.1394 18.773ZM12 22.5938C14.7572 22.5938 17.2711 21.5348 19.1578 19.8028C18.4219 18.7992 16.3247 17.3381 12.96 16.0781C11.7853 18.2653 10.3767 20.2753 8.74922 22.0828C9.77391 22.4142 10.8666 22.5938 12 22.5938ZM7.35703 21.5203C9.01688 19.7423 10.4447 17.7567 11.6208 15.6117C8.12016 14.4788 4.57594 14.0166 1.66172 14.3152C2.37141 17.4863 4.50656 20.1248 7.35703 21.5203ZM1.40625 12C1.40625 12.3112 1.42078 12.6192 1.44703 12.9234C2.09016 12.8555 2.76094 12.8212 3.45422 12.8212C6.18844 12.8212 9.26016 13.3472 12.2766 14.3461C12.7369 13.4039 13.1508 12.4345 13.5159 11.4412C12.3398 11.0184 11.1952 10.4808 10.1203 9.84094C7.485 8.27203 5.55703 6.25359 4.75734 4.27641C2.69625 6.21047 1.40625 8.95734 1.40625 12ZM12 1.40625C9.73641 1.40625 7.63641 2.12016 5.91281 3.33469C6.44719 5.14031 8.25469 7.09359 10.8398 8.6325C11.7506 9.17531 12.8156 9.68672 13.9748 10.1025C14.7966 7.51969 15.3 4.79344 15.4598 1.98703C14.3752 1.61109 13.2113 1.40625 12 1.40625ZM16.8314 2.57344C16.6364 5.30719 16.1273 7.96875 15.3103 10.5253C17.5884 11.1516 20.1188 11.3616 22.5183 10.7391C22.0936 7.17609 19.8942 4.14984 16.8314 2.57344Z" fill="#191A1E"/>
<path d="M12 24C5.3925 24 0 18.607 0 12C0 5.3925 5.39297 0 12 0C18.6075 0 24 5.39297 24 12C24 18.6075 18.607 24 12 24ZM20.1394 18.773C21.6375 16.9758 22.552 14.6766 22.5914 12.1687C20.7136 12.608 18.6281 12.6375 16.5042 12.2503C15.9516 12.1495 15.3989 12.0216 14.8495 11.8678C14.6667 12.3652 14.4727 12.8583 14.2664 13.3467C14.0559 13.845 13.8337 14.3348 13.6012 14.8177C16.132 15.7842 18.8742 17.2233 20.1394 18.773ZM12 22.5938C14.7572 22.5938 17.2711 21.5348 19.1578 19.8028C18.4219 18.7992 16.3247 17.3381 12.96 16.0781C11.7853 18.2653 10.3767 20.2753 8.74922 22.0828C9.77391 22.4142 10.8666 22.5938 12 22.5938ZM7.35703 21.5203C9.01688 19.7423 10.4447 17.7567 11.6208 15.6117C8.12016 14.4788 4.57594 14.0166 1.66172 14.3152C2.37141 17.4863 4.50656 20.1248 7.35703 21.5203ZM1.40625 12C1.40625 12.3112 1.42078 12.6192 1.44703 12.9234C2.09016 12.8555 2.76094 12.8212 3.45422 12.8212C6.18844 12.8212 9.26016 13.3472 12.2766 14.3461C12.7369 13.4039 13.1508 12.4345 13.5159 11.4412C12.3398 11.0184 11.1952 10.4808 10.1203 9.84094C7.485 8.27203 5.55703 6.25359 4.75734 4.27641C2.69625 6.21047 1.40625 8.95734 1.40625 12ZM12 1.40625C9.73641 1.40625 7.63641 2.12016 5.91281 3.33469C6.44719 5.14031 8.25469 7.09359 10.8398 8.6325C11.7506 9.17531 12.8156 9.68672 13.9748 10.1025C14.7966 7.51969 15.3 4.79344 15.4598 1.98703C14.3752 1.61109 13.2113 1.40625 12 1.40625ZM16.8314 2.57344C16.6364 5.30719 16.1273 7.96875 15.3103 10.5253C17.5884 11.1516 20.1188 11.3616 22.5183 10.7391C22.0936 7.17609 19.8942 4.14984 16.8314 2.57344Z" stroke="#191A1E"/>
</svg>
