<svg width="22" height="22" viewBox="0 0 22 22" fill="none" xmlns="http://www.w3.org/2000/svg">
<path d="M1.28236 1.22209L1.28247 1.22199C1.79548 0.760307 2.48193 0.5 3.22039 0.5H3.22298C3.95265 0.50067 4.63294 0.761734 5.14376 1.22691C5.65351 1.69151 5.92042 2.29023 5.9188 2.9135L5.9188 2.91353C5.91717 3.55433 5.64064 4.16028 5.11875 4.62184L5.11863 4.62194C4.62132 5.06205 3.94668 5.31549 3.26478 5.31549C3.24566 5.31549 3.22602 5.31521 3.20305 5.31483L3.19347 5.31467L3.18389 5.31488C2.51102 5.32957 1.80918 5.073 1.29901 4.61943C0.775864 4.15359 0.499659 3.54476 0.5 2.90456V2.9043C0.5 2.28085 0.769261 1.68359 1.28236 1.22209Z" fill="white" stroke="#191A1E"/>
<path d="M1.56613 7.04169H4.80011C5.22105 7.04169 5.50011 7.36116 5.50011 7.63093V20.361C5.50011 20.6067 5.23243 20.9251 4.80011 20.9251H1.60011C1.17786 20.9251 0.900116 20.6059 0.900116 20.3388V7.6331C0.900116 7.33822 1.16783 7.04169 1.56613 7.04169Z" fill="white" stroke="#191A1E"/>
<path d="M11.1 7.77111V9.0012L11.9582 8.11995C12.8203 7.23472 14.1762 6.67865 15.6092 6.67865H16.452C19.3222 6.67865 21.5 8.75209 21.5 11.3308V20.7019C21.5 20.7016 21.4999 20.7019 21.4998 20.7025C21.4983 20.7092 21.4868 20.7622 21.4125 20.8296C21.3345 20.9004 21.2497 20.9281 21.2 20.9281H17.2C17.1503 20.9281 17.0655 20.9004 16.9875 20.8296C16.9131 20.7622 16.9016 20.7092 16.9002 20.7025C16.9 20.7019 16.9 20.7016 16.9 20.7019V12.9138C16.9 12.158 16.6951 11.517 16.1921 11.0604C15.6539 10.5711 14.9389 10.3021 14.1879 10.3167C12.7034 10.3333 11.5 11.4718 11.5 12.945V20.7719C11.5 20.7741 11.5002 20.7782 11.4943 20.7885C11.4873 20.8008 11.4714 20.8214 11.4405 20.8447C11.374 20.895 11.2797 20.9262 11.2002 20.9262C11.2001 20.9262 11.2001 20.9262 11.2001 20.9262C11.2001 20.9262 11.2001 20.9262 11.2 20.9262L6.80049 20.9251C6.7207 20.925 6.62619 20.8937 6.55954 20.8434C6.52866 20.82 6.51276 20.7994 6.50574 20.7871C6.50002 20.7771 6.50003 20.773 6.50003 20.771L6.50003 20.7708V7.22321L6.50003 7.22321C6.50002 7.22305 6.49966 7.21616 6.5087 7.20011C6.51871 7.18233 6.53865 7.15683 6.5727 7.12973C6.64684 7.07071 6.73903 7.04172 6.80004 7.04172H10.8C10.8497 7.04172 10.9345 7.06936 11.0125 7.14015C11.0869 7.20761 11.0984 7.26058 11.0998 7.26728C11.1 7.26793 11.1 7.26814 11.1 7.26789V7.77111Z" fill="white" stroke="#191A1E"/>
</svg>
